# xmcd
#
# Track frame offsets:
#	150
#	14852
#	67911
#	99538
#	158249
#	207180
#	253337
#
# Disc length: 3530 seconds
#
# Revision: 0
# Processed by: cddbd v1.5.2PL0 Copyright (c) Steve Scherf et al.
# Submitted via: dBpowerAMP V4.0
#
DISCID=600dc807
DTITLE=Josh T. Pearson - Last Of The Country Gentlemen
DYEAR=2011
DGENRE=Country
TTITLE0=Thou Art Loosed
TTITLE1=Sweetheart I Ain't Your Christ
TTITLE2=Woman, When I've Raised Hell
TTITLE3=Honeymoon's Great! Wish You Were Her
TTITLE4=Sorry With A Song
TTITLE5=Country Dumb
TTITLE6=Drive Her Out
EXTD=
EXTT0=
EXTT1=
EXTT2=
EXTT3=
EXTT4=
EXTT5=
EXTT6=
PLAYORDER=
